/* XPM */
static char *_3615_f359261968a8551c96f60789d91f7f629c82c0f79241a8057248b4071715b668[] = {
/* columns rows colors chars-per-pixel */
"64 64 65 1 ",
"  c black",
". c gray5",
"X c #161616",
"o c gray11",
"O c gray18",
"+ c #353535",
"@ c gray22",
"# c gray24",
"$ c gray25",
"% c #494949",
"& c gray30",
"* c #585858",
"= c DimGray",
"- c #6A6A6A",
"; c #6D6D6D",
": c #727272",
"> c gray46",
", c #777777",
"< c #797979",
"1 c gray49",
"2 c #7E7E7E",
"3 c gray52",
"4 c #8E8E8E",
"5 c gray57",
"6 c gray58",
"7 c #9B9B9B",
"8 c gray61",
"9 c #A2A2A2",
"0 c gray64",
"q c #AAAAAA",
"w c gray68",
"e c #AEAEAE",
"r c #AFAFAF",
"t c #B4B4B4",
"y c #B6B6B6",
"u c #B7B7B7",
"i c #B9B9B9",
"p c gray74",
"a c gray",
"s c gray76",
"d c #C3C3C3",
"f c gray77",
"g c #C8C8C8",
"h c gray80",
"j c #CECECE",
"k c #DADADA",
"l c gainsboro",
"z c #DDDDDD",
"x c #E1E1E1",
"c c gray89",
"v c #E4E4E4",
"b c gray90",
"n c #E7E7E7",
"m c #ECECEC",
"M c gray94",
"N c #F1F1F1",
"B c gray95",
"V c gray96",
"C c gray97",
"Z c #F8F8F8",
"A c #FBFBFB",
"S c gray99",
"D c #FDFDFD",
"F c #FEFEFE",
"G c white",
/* pixels */
"                                                                ",
"                                                                ",
"                                                                ",
"                                                                ",
"                                                                ",
"                                                                ",
"                                                                ",
"                                                                ",
"GGGGGGGGGGGGGGGGGGGGGGGGGGGGGGGGGGGGGGGGGGGGGGGGGGGGGGGGGGGGGGGG",
"GGGGGGGGGGGGGGGGGGGGGGGGGGGGGGGGGGGGGGGGGGGGGGGGGGGGGGGGGGGGGGGG",
"GGGGGGGGGGGGGGGGGGGGGGGGGGGGGGGGGGGGGGGGGGGGGGGGGGGGGGGGGGGGGGGG",
"GGGGGGGGGGGGGGGGGGGGGGGGGGGGGGGGGGGGGGGGGGGGGGGGGGGGGGGGGGGGGGGG",
"GGGGGGGGGGGGGGGGGGGGGGGGGGGGGGGGGGGGGGGGGGGGGGGGGGGGGGGGGGGGGGGG",
"GGGGGGGGGGGGGGGGGGGGGGGGGGGGGGGGGGGGGGGGGGGGGGGGGGGGGGGGGGGGGGGG",
"GGGGGGGGGGGGGGGGGGGGGGGGGGGGGGGGGGGGGGGGGGGGGGGGGGGGGGGGGGGGGGGG",
"GGGGGGGGGGGGGGGGGGGGGGGGGGGGGGGGGGGGGGGGGGGGGGGGGGGGGGGGGGGGGGGG",
"GGGGGGGGGGGGGGGGGGGGGGGGGGGGGGGGGGGGGGGGGGGGGGGGGGGGGGGGGGGGGGGG",
"GGGGGGGGGGGGGGGGGGGGGGGGGGGGGGGGGGGGGGGGGGGGGGGGGGGGGGGGGGGGGGGG",
"GGGGGGGGGGGGGGGGGGGGGGGGGGGGGGGGGGGGGGGGGGGGGGGGGGGGGGGGGGGGGGGG",
"GGGGGGGGGGGGGGGGGGGGGGGGGGGGGGGGGGGGGGGGGGGGGGGGGGGGGGGGGGGGGGGG",
"GGGGGGGGGGGGGGGGGGGGGGGGGGGGGGGGGGGGGGGGGGGGGGGGGGGGGGGGGGGGGGGG",
"GGGGGGGGGGGGGGGGGGGGGGGGGGGGGGGGGGGGGGGGGGGGGGGGGGGGGGGGGGGGGGGG",
"GGGGGGGGGGGGGGGGGGGGGGGGGGGGGGGGGGGGGGGGGGGGGGGGGGGGGGGGGGGGGGGG",
"GGGGGGGGGGGGGGGGGGGGGGGGGGGGGGGGGGGGGGGGGGGGGGGGGGGGGGGGGGGGGGGG",
"GGGGGGGGGGGGGGGGGGGG&         .O&;5tlDGGGGGGGGGGGGGGGGGGGGGGGGGG",
"GGGGGGGGGGGGGGGGGGGG&                %eVGGGGGGGGGGGGGGGGGGGGGGGG",
"GGGGGGGGGGGGGGGGGGGG&                  #gGGGGGGGGGGGGGGGGGGGGGGG",
"GGGGGGGGGGGGGGGGGGGG&                    rFGGGGGGGGGGGGGGGGGGGGG",
"GGGGGGGGGGGGGGGGGGGG&    BGGGGDZMzi-      yGGGGGGGGGGGGGGGGGGGGG",
"GGGGGGGGGGGGGGGGGGGG&    BGGGGGGGGGFh+    XxGGGGGGGGGGGGGGGGGGGG",
"GGGGGGGGGGGGGGGGGGGG&    BGGGGGGGGGGGc@    >GGGGGGGGGGGGGGGGGGGG",
"GGGGGGGGGGGGGGGGGGGG&    BGGGGGGGGGGGGs     vGGGGGGGGGGGGGGGGGGG",
"GGGGGGGGGGGGGGGGGGGG&    BGGGGGGGGGGGGS$    pGGGGGGGGGGGGGGGGGGG",
"GGGGGGGGGGGGGGGGGGGG&    BGGGGGGGGGGGGG7    8GGGGGGGGGGGGGGGGGGG",
"GGGGGGGGGGGGGGGGGGGG&    BGGGGGGGGGGGGGu    3GGGGGGGGGGGGGGGGGGG",
"GGGGGGGGGGGGGGGGGGGG&    BGGGGGGGGGGGGGf    1GGGGGGGGGGGGGGGGGGG",
"GGGGGGGGGGGGGGGGGGGG&    BGGGGGGGGGGGGGa    4GGGGGGGGGGGGGGGGGGG",
"GGGGGGGGGGGGGGGGGGGG&    BGGGGGGGGGGGGGq    9GGGGGGGGGGGGGGGGGGG",
"GGGGGGGGGGGGGGGGGGGG&    BGGGGGGGGGGGGG:    dGGGGGGGGGGGGGGGGGGG",
"GGGGGGGGGGGGGGGGGGGG&    BGGGGGGGGGGGGb     mGGGGGGGGGGGGGGGGGGG",
"GGGGGGGGGGGGGGGGGGGG&    BGGGGGGGGGGGD3    ,GGGGGGGGGGGGGGGGGGGG",
"GGGGGGGGGGGGGGGGGGGG&    BGGGGGGGGGGGw     kGGGGGGGGGGGGGGGGGGGG",
"GGGGGGGGGGGGGGGGGGGG&    BGGGGGGGGGB6     5GGGGGGGGGGGGGGGGGGGGG",
"GGGGGGGGGGGGGGGGGGGG&    BGGGGSVnj7o     =CGGGGGGGGGGGGGGGGGGGGG",
"GGGGGGGGGGGGGGGGGGGG&                   <NGGGGGGGGGGGGGGGGGGGGGG",
"GGGGGGGGGGGGGGGGGGGG&                  0AGGGGGGGGGGGGGGGGGGGGGGG",
"GGGGGGGGGGGGGGGGGGGG&                6nGGGGGGGGGGGGGGGGGGGGGGGGG",
"GGGGGGGGGGGGGGGGGGGG&         X+*20gMGGGGGGGGGGGGGGGGGGGGGGGGGGG",
"GGGGGGGGGGGGGGGGGGGG&    BGGGGGGGGGGGGGGGGGGGGGGGGGGGGGGGGGGGGGG",
"GGGGGGGGGGGGGGGGGGGG&    BGGGGGGGGGGGGGGGGGGGGGGGGGGGGGGGGGGGGGG",
"GGGGGGGGGGGGGGGGGGGG&    BGGGGGGGGGGGGGGGGGGGGGGGGGGGGGGGGGGGGGG",
"GGGGGGGGGGGGGGGGGGGG&    BGGGGGGGGGGGGGGGGGGGGGGGGGGGGGGGGGGGGGG",
"GGGGGGGGGGGGGGGGGGGG&    BGGGGGGGGGGGGGGGGGGGGGGGGGGGGGGGGGGGGGG",
"GGGGGGGGGGGGGGGGGGGG&    BGGGGGGGGGGGGGGGGGGGGGGGGGGGGGGGGGGGGGG",
"GGGGGGGGGGGGGGGGGGGG&    BGGGGGGGGGGGGGGGGGGGGGGGGGGGGGGGGGGGGGG",
"GGGGGGGGGGGGGGGGGGGG&    BGGGGGGGGGGGGGGGGGGGGGGGGGGGGGGGGGGGGGG",
"GGGGGGGGGGGGGGGGGGGG&    BGGGGGGGGGGGGGGGGGGGGGGGGGGGGGGGGGGGGGG",
"GGGGGGGGGGGGGGGGGGGG&    BGGGGGGGGGGGGGGGGGGGGGGGGGGGGGGGGGGGGGG",
"GGGGGGGGGGGGGGGGGGGG&    BGGGGGGGGGGGGGGGGGGGGGGGGGGGGGGGGGGGGGG",
"GGGGGGGGGGGGGGGGGGGG&    BGGGGGGGGGGGGGGGGGGGGGGGGGGGGGGGGGGGGGG",
"GGGGGGGGGGGGGGGGGGGG&    BGGGGGGGGGGGGGGGGGGGGGGGGGGGGGGGGGGGGGG",
"GGGGGGGGGGGGGGGGGGGG&    BGGGGGGGGGGGGGGGGGGGGGGGGGGGGGGGGGGGGGG",
"GGGGGGGGGGGGGGGGGGGGGGGGGGGGGGGGGGGGGGGGGGGGGGGGGGGGGGGGGGGGGGGG",
"GGGGGGGGGGGGGGGGGGGGGGGGGGGGGGGGGGGGGGGGGGGGGGGGGGGGGGGGGGGGGGGG",
};
