/* XPM */
static char *_09e5543832b448edab9a79e229d31fbfryWF3lCZFzDJhZV[] = {
/* columns rows colors chars-per-pixel */
"64 64 41 1 ",
"  c black",
". c #090101",
"X c #1C0303",
"o c #200303",
"O c #230404",
"+ c #270505",
"@ c #3E0B0B",
"# c #400C0C",
"$ c #4A0F0F",
"% c #4B1010",
"& c #501111",
"* c #571414",
"= c #5B1515",
"- c #5C1515",
"; c #621717",
": c #631818",
"> c #6F1B1B",
", c #711C1C",
"< c #7E2121",
"1 c #842323",
"2 c #8A2525",
"3 c #8E2626",
"4 c #902727",
"5 c #9B2A2A",
"6 c #9C2B2B",
"7 c #A22D2D",
"8 c #A62E2E",
"9 c #A82F2F",
"0 c #AD3030",
"q c #B13131",
"w c #B53333",
"e c #B93434",
"r c #BE3636",
"t c #C23737",
"y c #C43838",
"u c #C93939",
"i c #CE3B3B",
"p c #D23C3C",
"a c #D53D3D",
"s c #DA3F3F",
"d c #DD4040",
/* pixels */
"dddddddddddddddddddddddddddddddddddddddddddddddddddddddddddddddd",
"dddddddddddddddddddddddddddddddddddddddddddddddddddddddddddddddd",
"dddddddddddddddddddddddddddddddddddddddddddddddddddddddddddddddd",
"dddddddddddddddddddddddddddddddddddddddddddddddddddddddddddddddd",
"dddddddddddddddddddddddddddddddddddddddddddddddddddddddddddddddd",
"dddddddddddddddddddddddddddddddddddddddddddddddddddddddddddddddd",
"dddddddddddddddddddddddddddddddddddddddddddddddddddddddddddddddd",
"dddddddddddddddddddddddddddddddddddddddddddddddddddddddddddddddd",
"dddddddddddddddddddddddddddddddddddddddddddddddddddddddddddddddd",
"dddddddddddddddddddddddddddddddddddddddddddddddddddddddddddddddd",
"dddddddddddddddddddddddddddddddddddddddddddddddddddddddddddddddd",
"dddddddddddddddddddddddddddddddddddddddddddddddddddddddddddddddd",
"dddddddddddddddddddddddddddddddddddddddddddddddddddddddddddddddd",
"dddddddddddddddddddddddddddddddddddddddddddddddddddddddddddddddd",
"dddddddddddddddddddddddddddddddddddddddddddddddddddddddddddddddd",
"dddddddddddddd+                        5dddddddddddddddddddddddd",
"dddddddddddddddsi6.                    4dddddddddddddddddddddddd",
"dddddddddddddddddd2    9dddddddddsay3. 1dddddddddddddddddddddddd",
"ddddddddddddddddddq    9ddddddddddddd0 <dddddddddddddddddddddddd",
"ddddddddddddddddddr    9dddddddddddddd>,dddddddddddddddddddddddd",
"ddddddddddddddddddt    9dddddddddddddd0:dddddddddddddddddddddddd",
"ddddddddddddddddddy    9ddddddddddddddi&dddddddddddddddddddddddd",
"ddddddddddddddddddy    9dddddddddddddddddddddddddddddddddddddddd",
"ddddddddddddddddddy    9dddddddddddddddddddddddddddddddddddddddd",
"ddddddddddddddddddy    9dddddddddddddddddddddddddddddddddddddddd",
"ddddddddddddddddddy    9dddddddddddi;ddddddddddddddddddddddddddd",
"ddddddddddddddddddy    9dddddddddddt;ddddddddddddddddddddddddddd",
"ddddddddddddddddddy    9ddddddddddd6;ddddddddddddddddddddddddddd",
"ddddddddddddddddddy    9ddddddddddp@;ddddddddddddddddddddddddddd",
"ddddddddddddddddddy    9dddddddspw= ;ddddddddddddddddddddddddddd",
"ddddddddddddddddddy                 ;ddddddddddddddddddddddddddd",
"ddddddddddddddddddy                 ;ddddddddddddddddddddddddddd",
"ddddddddddddddddddy    9dddddddsiq$ ;ddddddddddddddddddddddddddd",
"ddddddddddddddddddy    9ddddddddddp#;ddddddddddddddddddddddddddd",
"ddddddddddddddddddy    9ddddddddddd5;ddddddddddddddddddddddddddd",
"ddddddddddddddddddy    9ddddddddddde;ddddddddddddddddddddddddddd",
"ddddddddddddddddddy    9dddddddddddi;ddddddddddddddddddddddddddd",
"ddddddddddddddddddy    9dddddddddddddddddddddddddddddddddddddddd",
"ddddddddddddddddddy    9dddddddddddddddddddddddddddddddddddddddd",
"ddddddddddddddddddy    9dddddddddddddddddddddddddddddddddddddddd",
"ddddddddddddddddddy    9dddddddddddddddds=yddddddddddddddddddddd",
"ddddddddddddddddddy    9dddddddddddddddd7-dddddddddddddddddddddd",
"ddddddddddddddddddt    9dddddddddddddddyo7dddddddddddddddddddddd",
"ddddddddddddddddddt    8ddddddddddddddp& idddddddddddddddddddddd",
"ddddddddddddddddddw    5dddddddddddddu* >ddddddddddddddddddddddd",
"dddddddddddddddddd1    %tsdddddddspr3O  0ddddddddddddddddddddddd",
"dddddddddddddddsy2                     Xaddddddddddddddddddddddd",
"dddddddddddddd+                        <dddddddddddddddddddddddd",
"dddddddddddddddddddddddddddddddddddddddddddddddddddddddddddddddd",
"dddddddddddddddddddddddddddddddddddddddddddddddddddddddddddddddd",
"dddddddddddddddddddddddddddddddddddddddddddddddddddddddddddddddd",
"dddddddddddddddddddddddddddddddddddddddddddddddddddddddddddddddd",
"dddddddddddddddddddddddddddddddddddddddddddddddddddddddddddddddd",
"dddddddddddddddddddddddddddddddddddddddddddddddddddddddddddddddd",
"dddddddddddddddddddddddddddddddddddddddddddddddddddddddddddddddd",
"dddddddddddddddddddddddddddddddddddddddddddddddddddddddddddddddd",
"dddddddddddddddddddddddddddddddddddddddddddddddddddddddddddddddd",
"dddddddddddddddddddddddddddddddddddddddddddddddddddddddddddddddd",
"dddddddddddddddddddddddddddddddddddddddddddddddddddddddddddddddd",
"dddddddddddddddddddddddddddddddddddddddddddddddddddddddddddddddd",
"dddddddddddddddddddddddddddddddddddddddddddddddddddddddddddddddd",
"dddddddddddddddddddddddddddddddddddddddddddddddddddddddddddddddd",
"dddddddddddddddddddddddddddddddddddddddddddddddddddddddddddddddd",
"dddddddddddddddddddddddddddddddddddddddddddddddddddddddddddddddd"
};
