/* XPM */
static char *_c49f7d3a37a47cac3e64c868865cecaBfrY9Ue08hOKUcDt[] = {
/* columns rows colors chars-per-pixel */
"64 64 54 1 ",
"  c black",
". c #000702",
"X c #010D03",
"o c #011205",
"O c #021606",
"+ c #03200B",
"@ c #052B11",
"# c #063114",
"$ c #073616",
"% c #083717",
"& c #0A3F1B",
"* c #0A411C",
"= c #0B451E",
"- c #0D4B21",
"; c #0E4F24",
": c #0F5024",
"> c #115527",
", c #135D2B",
"< c #135E2C",
"1 c #14612D",
"2 c #166731",
"3 c #176A33",
"4 c #176B33",
"5 c #176C33",
"6 c #186D34",
"7 c #197237",
"8 c #1A7538",
"9 c #1C793B",
"0 c #1C7B3C",
"q c #1C7C3C",
"w c #1F8340",
"e c #1F8641",
"r c #208641",
"t c #218B44",
"y c #228D45",
"u c #239047",
"i c #239248",
"p c #249348",
"a c #25974A",
"s c #269B4D",
"d c #279E4E",
"f c #28A050",
"g c #2AA753",
"h c #2BAB55",
"j c #2BAC56",
"k c #2CAF58",
"l c #2DB35A",
"z c #2EB55B",
"x c #2EB65B",
"c c #2FB95D",
"v c #30BB5E",
"b c #31BE5F",
"n c #31BE60",
"m c #31BF60",
/* pixels */
"mmmmmmmmmmmmmmmmmmmmmmmmmmmmmmmmmmmmmmmmmmmmmmmmmmmmmmmmmmmmmmmm",
"mmmmmmmmmmmmmmmmmmmmmmmmmmmmmmmmmmmmmmmmmmmmmmmmmmmmmmmmmmmmmmmm",
"mmmmmmmmmmmmmmmmmmmmmmmmmmmmmmmmmmmmmmmmmmmmmmmmmmmmmmmmmmmmmmmm",
"mmmmmmmmmmmmmmmmmmmmmmmmmmmmmmmmmmmmmmmmmmmmmmmmmmmmmmmmmmmmmmmm",
"mmmmmmmmmmmmmmmmmmmmmmmmmmmmmmmmmmmmmmmmmmmmmmmmmmmmmmmmmmmmmmmm",
"mmmmmmmmmmmmmmmmmmmmmmmmmmmmmmmmmmmmmmmmmmmmmmmmmmmmmmmmmmmmmmmm",
"mmmmmmmmmmmmmmmmmmmmmmmmmmmmmmmmmmmmmmmmmmmmmmmmmmmmmmmmmmmmmmmm",
"mmmmmmmmmmmmmmmmmmmmmmmmmmmmmmmmmmmmmmmmmmmmmmmmmmmmmmmmmmmmmmmm",
"mmmmmmmmmmmmmmmmmmmmmmmmmmmmmmmmmmmmmmmmmmmmmmmmmmmmmmmmmmmmmmmm",
"mmmmmmmmmmmmmmmmmmmmmmmmmmmmmmmmmmmmmmmmmmmmmmmmmmmmmmmmmmmmmmmm",
"mmmmmmmmmmmmmmmmmmmmmmmmmmmmmmmmmmmmmmmmmmmmmmmmmmmmmmmmmmmmmmmm",
"mmmmmmmmmmmmmmmmmmmmmmmmmmmmmmmmmmmmmmmmmmmmmmmmmmmmmmmmmmmmmmmm",
"mmmmmmmmmmmmmmmmmmmmmmmmmmmmmmmmmmmmmmmmmmmmmmmmmmmmmmmmmmmmmmmm",
"mmmmmmmmmmmmmmmmmmmmmmmmmmmmmmmmmmmmmmmmmmmmmmmmmmmmmmmmmmmmmmmm",
"mmmmmmmmmmmmmmmmmmmmmmmmmmmmmmmmmmmmmmmmmmmmmmmmmmmmmmmmmmmmmmmm",
"mmmmmmmmmmmm8        3mmmmmmmmmmmmmmz           ammmmmmmmmmmmmmm",
"mmmmmmmmmmmmmvjr$     rmmmmmmmmmmmmmmmvj3   *dcmmmmmmmmmmmmmmmmm",
"mmmmmmmmmmmmmmmmc6     smmmmmmmmmmmmmmbmb=  lmmmmmmmmmmmmmmmmmmm",
"mmmmmmmmmmmmmmmmmm8    +jmmmmmmmmmmmmmmmb0 =bbmmmmmmmmmmmmmmmmmm",
"mmmmmmmmmmmmmmmmmml     *zmmmmmmmmmmmmmmmt 1mmmmmmmmmmmmmmmmmmmm",
"mmmmmmmmmmmmmmmmmbl      <bmmmmmmmmmmmmmmi 3mmmmmmmmmmmmmmmmmmmm",
"mmmmmmmmmmmmmmmmmbl  @    8mmmmmmmmmmmmmmp 3mmmmmmmmmmmmmmmmmmmm",
"mmmmmmmmmmmmmmmmmml  f.    ymmmmmmmmmmmmmp 3mmmmmmmmmmmmmmmmmmmm",
"mmmmmmmmmmmmmmmmmml  by    Xgmmmmmmmmmmmmp 3mmmmmmmmmmmmmmmmmmmm",
"mmmmmmmmmmmmmmmmmml  bm7    #lbmmmmmmmmmmp 3mmmmmmmmmmmmmmmmmmmm",
"mmmmmmmmmmmmmmmmmml  bmv>    ;cmmmmmmmmmmp 3mmmmmmmmmmmmmmmmmmmm",
"mmmmmmmmmmmmmmmmmml  bmml%    3mmmmmmmmmmp 3mmmmmmmmmmmmmmmmmmmm",
"mmmmmmmmmmmmmmmmmbl  bmmmgO    emmmmmmmmmp 3mmmmmmmmmmmmmmmmmmmm",
"mmmmmmmmmmmmmmmmmml  bmmmmi     dmmmmmmmmp 3mmmmmmmmmmmmmmmmmmmm",
"mmmmmmmmmmmmmmmmmml  bmmmmm0    +jmmmmmmmp 3mmmmmmmmmmmmmmmmmmmm",
"mmmmmmmmmmmmmmmmmml  bmmmmmb1    *zmmmmmmp 3mmmmmmmmmmmmmmmmmmmm",
"mmmmmmmmmmmmmmmmmml  bmmmmmmz*    <bmmmmmp 3mmmmmmmmmmmmmmmmmmmm",
"mmmmmmmmmmmmmmmmmbl  bmmmmmmmj+    9mmmmmp 3mmmmmmmmmmmmmmmmmmmm",
"mmmmmmmmmmmmmmmmmbl  bmmmmmmmbs     immmmp 3mmmmmmmmmmmmmmmmmmmm",
"mmmmmmmmmmmmmmmmmml  bmmmmmmmmmw    ogmmmp 3mmmmmmmmmmmmmmmmmmmm",
"mmmmmmmmmmmmmmmmmml  bmmmmmmmmmb2    #lmmp 3mmmmmmmmmmmmmmmmmmmm",
"mmmmmmmmmmmmmmmmmml  bmmmmmmmmmmc-    :cmp 3mmmmmmmmmmmmmmmmmmmm",
"mmmmmmmmmmmmmmmmmml  bmmmmmmmmmmmk@    5mp 3mmmmmmmmmmmmmmmmmmmm",
"mmmmmmmmmmmmmmmmmml  bmmmmmmmmmmmmf.    rp 3mmmmmmmmmmmmmmmmmmmm",
"mmmmmmmmmmmmmmmmmbl  bmmmmmmmmmmmmby     1 3mmmmmmmmmmmmmmmmmmmm",
"mmmmmmmmmmmmmmmmmml  bmmmmmmmmmmmmmm6      3mmmmmmmmmmmmmmmmmmmm",
"mmmmmmmmmmmmmmmmmml  bmmmmmmmmmmmmmmb:     5mmmmmmmmmmmmmmmmmmmm",
"mmmmmmmmmmmmmmmmmml  bmmmmmmmmmmmmmmml$    3mmmmmmmmmmmmmmmmmmmm",
"mmmmmmmmmmmmmmmmmmh  vmmmmmmmmmmmmmmmbgo   5mmmmmmmmmmmmmmmmmmmm",
"mmmmmmmmmmmmmmmmmmf  hmmmmmmmmmmmmmmmmmi   3mmmmmmmmmmmmmmmmmmmm",
"mmmmmmmmmmmmmmmmmmq  ummmmmmmmmmmmmmmmmm0  3mmmmmmmmmmmmmmmmmmmm",
"mmmmmmmmmmmmmmbble   +izmmmmmmmmmmmmmmmmm, 3mmmmmmmmmmmmmmmmmmmm",
"mmmmmmmmmmmmmm>          6mmmmmmmmmmmmmmmz&3mmmmmmmmmmmmmmmmmmmm",
"mmmmmmmmmmmmmmmmmmmmmmmmmmmmmmmmmmmmmmmmmmjsmmmmmmmmmmmmmmmmmmmm",
"mmmmmmmmmmmmmmmmmmmmmmmmmmmmmmmmmmmmmmmmmmbmmmmmmmmmmmmmmmmmmmmm",
"mmmmmmmmmmmmmmmmmmmmmmmmmmmmmmmmmmmmmmmmmmmmmmmmmmmmmmmmmmmmmmmm",
"mmmmmmmmmmmmmmmmmmmmmmmmmmmmmmmmmmmmmmmmmmmmmmmmmmmmmmmmmmmmmmmm",
"mmmmmmmmmmmmmmmmmmmmmmmmmmmmmmmmmmmmmmmmmmmmmmmmmmmmmmmmmmmmmmmm",
"mmmmmmmmmmmmmmmmmmmmmmmmmmmmmmmmmmmmmmmmmmmmmmmmmmmmmmmmmmmmmmmm",
"mmmmmmmmmmmmmmmmmmmmmmmmmmmmmmmmmmmmmmmmmmmmmmmmmmmmmmmmmmmmmmmm",
"mmmmmmmmmmmmmmmmmmmmmmmmmmmmmmmmmmmmmmmmmmmmmmmmmmmmmmmmmmmmmmmm",
"mmmmmmmmmmmmmmmmmmmmmmmmmmmmmmmmmmmmmmmmmmmmmmmmmmmmmmmmmmmmmmmm",
"mmmmmmmmmmmmmmmmmmmmmmmmmmmmmmmmmmmmmmmmmmmmmmmmmmmmmmmmmmmmmmmm",
"mmmmmmmmmmmmmmmmmmmmmmmmmmmmmmmmmmmmmmmmmmmmmmmmmmmmmmmmmmmmmmmm",
"mmmmmmmmmmmmmmmmmmmmmmmmmmmmmmmmmmmmmmmmmmmmmmmmmmmmmmmmmmmmmmmm",
"mmmmmmmmmmmmmmmmmmmmmmmmmmmmmmmmmmmmmmmmmmmmmmmmmmmmmmmmmmmmmmmm",
"mmmmmmmmmmmmmmmmmmmmmmmmmmmmmmmmmmmmmmmmmmmmmmmmmmmmmmmmmmmmmmmm",
"mmmmmmmmmmmmmmmmmmmmmmmmmmmmmmmmmmmmmmmmmmmmmmmmmmmmmmmmmmmmmmmm",
"mmmmmmmmmmmmmmmmmmmmmmmmmmmmmmmmmmmmmmmmmmmmmmmmmmmmmmmmmmmmmmmm"
};
