/* XPM */
static char *_f9a9cadcea94fd5c9e414288008814fUy4mmch1afWdMjaJ[] = {
/* columns rows colors chars-per-pixel */
"64 64 63 1 ",
"  c black",
". c #000005",
"X c #01010A",
"o c #010112",
"O c #010215",
"+ c #02021A",
"@ c #02031D",
"# c #030321",
"$ c #030323",
"% c #030424",
"& c #040426",
"* c #040428",
"= c #05052C",
"- c #050630",
"; c #060733",
": c #070735",
"> c #070836",
", c #070839",
"< c #080A3D",
"1 c #090B40",
"2 c #0A0B42",
"3 c #0C0D48",
"4 c #0C0E49",
"5 c #0D0F4D",
"6 c #0E0F4E",
"7 c #0E1050",
"8 c #101257",
"9 c #12135B",
"0 c #12145C",
"q c #13145F",
"w c #141662",
"e c #151766",
"r c #151767",
"t c #151768",
"y c #16186B",
"u c #17196C",
"i c #181A6F",
"p c #181B72",
"a c #191B73",
"s c #191B75",
"d c #191C75",
"f c #1B1D7A",
"g c #1B1D7B",
"h c #1B1E7C",
"j c #1C1E7D",
"k c #1D2082",
"l c #1E2083",
"z c #1E2085",
"x c #1F2289",
"c c #20228A",
"v c #21238E",
"b c #21248E",
"n c #222593",
"m c #232695",
"M c #242698",
"N c #242798",
"B c #25289B",
"V c #25289C",
"C c #25289D",
"Z c #2629A1",
"A c #272AA3",
"S c #272AA4",
"D c #282BA6",
/* pixels */
"DDDDDDDDDDDDDDDDDDDDDDDDDDDDDDDDDDDDDDDDDDDDDDDDDDDDDDDDDDDDDDDD",
"DDDDDDDDDDDDDDDDDDDDDDDDDDDDDDDDDDDDDDDDDDDDDDDDDDDDDDDDDDDDDDDD",
"DDDDDDDDDDDDDDDDDDDDDDDDDDDDDDDDDDDDDDDDDDDDDDDDDDDDDDDDDDDDDDDD",
"DDDDDDDDDDDDDDDDDDDDDDDDDDDDDDDDDDDDDDDDDDDDDDDDDDDDDDDDDDDDDDDD",
"DDDDDDDDDDDDDDDDDDDDDDDDDDDDDDDDDDDDDDDDDDDDDDDDDDDDDDDDDDDDDDDD",
"DDDDDDDDDDDDDDDDDDDDDDDDDDDDDDDDDDDDDDDDDDDDDDDDDDDDDDDDDDDDDDDD",
"DDDDDDDDDDDDDDDDDDDDDDDDDDDDDDDDDDDDDDDDDDDDDDDDDDDDDDDDDDDDDDDD",
"DDDDDDDDDDDDDDDDDDDDDDDDDDDDDDDDDDDDDDDDDDDDDDDDDDDDDDDDDDDDDDDD",
"DDDDDDDDDDDDDDDDDDDDDDDDDDDDDDDDDDDDDDDDDDDDDDDDDDDDDDDDDDDDDDDD",
"DDDDDDDDDDDDDDDDDDDDDDDDDDDDDDDDDDDDDDDDDDDDDDDDDDDDDDDDDDDDDDDD",
"DDDDDDDDDDDDDDDDDDDDDDDDDDDDDDDDDDDDDDDDDDDDDDDDDDDDDDDDDDDDDDDD",
"DDDDDDDDDDDDDDDDDDDDDDDDDDDDDDDDDDDDDDDDDDDDDDDDDDDDDDDDDDDDDDDD",
"DDDDDDDDDDDDDDDDDDDDDDDDDDDDDDDDDDDDDDDDDDDDDDDDDDDDDDDDDDDDDDDD",
"DDDDDDDDDDDDDDDDDDDDDDDDDDDDDDDDDDDDDDDDDDDDDDDDDDDDDDDDDDDDDDDD",
"DDDDDDDDDDDDDDDDDDDDDDDDDDDDDDDDDDDDDDDDDDDDDDDDDDDDDDDDDDDDDDDD",
"DDDDDDDDx           =DDDu            nDDDDDDZ         5DDDDDDDDD",
"DDDDDDDDDZv5      pCDDDDDCj%      pCDDDDDDDDDZBz+   tNZDDDDDDDDD",
"DDDDDDDDDDDZ1    7DDDDDDDDDmo    <DDDDDDDDDDDDZDa  rDDDDDDDDDDDD",
"DDDDDDDDDDDDz    8DDDDDDDDDDp    7DDDDDDDDDDDDDDh &ZDDDDDDDDDDDD",
"DDDDDDDDDDDDZ&   $DDDDDDDDDDC+   &DDDDDDDDDDDDDDw iDDDDDDDDDDDDD",
"DDDDDDDDDDDDDy    bDDDDDDDDDSw    nDDDDDDDDDDDDZ* mSDDDDDDDDDDDD",
"DDDDDDDDDDDDDn    rDDDDDDDDDDv    iDDDDDDDDDDDDb <DDDDDDDDDDDDDD",
"DDDDDDDDDDDDDD<   $ZDDDDDDDDDD=   >DDDDDDDDDDDDt aDDDDDDDDDDDDDD",
"DDDDDDDDDDDDDDd    cDDDDDDDDDDu    bDDDDDDDDDDZ# mDDDDDDDDDDDDDD",
"DDDDDDDDDDDDDDN    qDDDDDDDDDDc    yDDDDDDDDDDx 1DDDDDDDDDDDDDDD",
"DDDDDDDDDDDDDDD4   OZDDDDDDDDDu    &ZDDDDDDDDDw jDDDDDDDDDDDDDDD",
"DDDDDDDDDDDDDDDj    lDDDDDDDDD-     cDDDDDDDDZ+ NDDDDDDDDDDDDDDD",
"DDDDDDDDDDDDDDDC.   8DDDDDDDDb #    wDDDDDDDDz 4DDDDDDDDDDDDDDDD",
"DDDDDDDDDDDDDDDD8   .CDDDDDDDr p4   +ZDDDDDDD9 hDDDDDDDDDDDDDDDD",
"DDDDDDDDDDDDDDDDl    jDDDDDDD& mg    zDDDDDDZo CDDDDDDDDDDDDDDDD",
"DDDDDDDDDDDDDDDDZO   5DDDDDDc <DC.   9DDDDDDl 7SDDDDDDDDDDDDDDDD",
"DDDDDDDDDDDDDDDDDq    NDDDDDw dDD8   XCDDDDD8 kDDDDDDDDDDDDDDDDD",
"DDDDDDDDDDDDDDDDDx    fDDDSZ@ BDDl    jDDDDC.XCDDDDDDDDDDDDDDDDD",
"DDDDDDDDDDDDDDDDDZ%   <DDDDl 4DDDCo   5DDDDj 9DDDDDDDDDDDDDDDDDD",
"DDDDDDDDDDDDDDDDDDr    mDDDq hDDDDq    CDDD5 lDDDDDDDDDDDDDDDDDD",
"DDDDDDDDDDDDDDDDDDn    uDDZo.CDDDDz    gDDB OZDDDDDDDDDDDDDDDDDD",
"DDDDDDDDDDDDDDDDDDD;   >DDz 7DDDDDD#   1DDf qDDDDDDDDDDDDDDDDDDD",
"DDDDDDDDDDDDDDDDDDDp    bD8 zDDDDDDt    ND4 zDDDDDDDDDDDDDDDDDDD",
"DDDDDDDDDDDDDDDDDDDn    yC.oCDDDDDDv    pN @ZDDDDDDDDDDDDDDDDDDD",
"DDDDDDDDDDDDDDDDDDDD2   &f qDDDDDDDD-   :d wDDDDDDDDDDDDDDDDDDDD",
"DDDDDDDDDDDDDDDDDDDDf    @ cDDDDDDDDi    @ vDDDDDDDDDDDDDDDDDDDD",
"DDDDDDDDDDDDDDDDDDDDB     #ZDDDDDDDDm     &ZDDDDDDDDDDDDDDDDDDDD",
"DDDDDDDDDDDDDDDDDDDDD5    rDDDDDDDDDD1    tDDDDDDDDDDDDDDDDDDDDD",
"DDDDDDDDDDDDDDDDDDDDDj    cDDDDDDDDDDd    vDDDDDDDDDDDDDDDDDDDDD",
"DDDDDDDDDDDDDDDDDDDDDCX  =DDDDDDDDDDDN   -DDDDDDDDDDDDDDDDDDDDDD",
"DDDDDDDDDDDDDDDDDDDDDD9  iDDDDDDDDDDDD4  uDDDDDDDDDDDDDDDDDDDDDD",
"DDDDDDDDDDDDDDDDDDDDDDz  nDDDDDDDDDDDDj  nDDDDDDDDDDDDDDDDDDDDDD",
"DDDDDDDDDDDDDDDDDDDDDDZ+,DDDDDDDDDDDDDC.>DDDDDDDDDDDDDDDDDDDDDDD",
"DDDDDDDDDDDDDDDDDDDDDDDwpDDDDDDDDDDDDDD8pDDDDDDDDDDDDDDDDDDDDDDD",
"DDDDDDDDDDDDDDDDDDDDDDDDDDDDDDDDDDDDDDDDDDDDDDDDDDDDDDDDDDDDDDDD",
"DDDDDDDDDDDDDDDDDDDDDDDDDDDDDDDDDDDDDDDDDDDDDDDDDDDDDDDDDDDDDDDD",
"DDDDDDDDDDDDDDDDDDDDDDDDDDDDDDDDDDDDDDDDDDDDDDDDDDDDDDDDDDDDDDDD",
"DDDDDDDDDDDDDDDDDDDDDDDDDDDDDDDDDDDDDDDDDDDDDDDDDDDDDDDDDDDDDDDD",
"DDDDDDDDDDDDDDDDDDDDDDDDDDDDDDDDDDDDDDDDDDDDDDDDDDDDDDDDDDDDDDDD",
"DDDDDDDDDDDDDDDDDDDDDDDDDDDDDDDDDDDDDDDDDDDDDDDDDDDDDDDDDDDDDDDD",
"DDDDDDDDDDDDDDDDDDDDDDDDDDDDDDDDDDDDDDDDDDDDDDDDDDDDDDDDDDDDDDDD",
"DDDDDDDDDDDDDDDDDDDDDDDDDDDDDDDDDDDDDDDDDDDDDDDDDDDDDDDDDDDDDDDD",
"DDDDDDDDDDDDDDDDDDDDDDDDDDDDDDDDDDDDDDDDDDDDDDDDDDDDDDDDDDDDDDDD",
"DDDDDDDDDDDDDDDDDDDDDDDDDDDDDDDDDDDDDDDDDDDDDDDDDDDDDDDDDDDDDDDD",
"DDDDDDDDDDDDDDDDDDDDDDDDDDDDDDDDDDDDDDDDDDDDDDDDDDDDDDDDDDDDDDDD",
"DDDDDDDDDDDDDDDDDDDDDDDDDDDDDDDDDDDDDDDDDDDDDDDDDDDDDDDDDDDDDDDD",
"DDDDDDDDDDDDDDDDDDDDDDDDDDDDDDDDDDDDDDDDDDDDDDDDDDDDDDDDDDDDDDDD",
"DDDDDDDDDDDDDDDDDDDDDDDDDDDDDDDDDDDDDDDDDDDDDDDDDDDDDDDDDDDDDDDD",
"DDDDDDDDDDDDDDDDDDDDDDDDDDDDDDDDDDDDDDDDDDDDDDDDDDDDDDDDDDDDDDDD"
};
